<?xml version="1.0" encoding="utf-8"?>
<svg version="1.2" baseProfile="tiny" id="petterdefault" xmlns="http://www.w3.org/2000/svg" xmlns:xlink="http://www.w3.org/1999/xlink"
	 x="0px" y="0px" viewBox="0 0 56.69 56.69" xml:space="preserve">
<g fill="none" stroke="#000000" stroke-width="3.0967" stroke-linejoin="round" stroke-miterlimit="10">
	<line x1="19.69" y1="16.78" x2="19.69" y2="0.85"/>
	<line x1="25.5" y1="16.78" x2="25.5" y2="0.85"/>
	<line x1="31.31" y1="16.78" x2="31.31" y2="0.85"/>
	<line x1="37.12" y1="16.78" x2="37.12" y2="0.85"/>
	<line x1="42.93" y1="16.78" x2="42.93" y2="0.85"/>
	<line x1="44.54" y1="20.51" x2="18.13" y2="20.51"/>
	<line x1="44.54" y1="26.14" x2="18.13" y2="26.14"/>
	<line x1="19.69" y1="39.31" x2="19.69" y2="29.9"/>
	<line x1="25.5" y1="39.31" x2="25.5" y2="29.9"/>
	<line x1="31.31" y1="39.31" x2="31.31" y2="29.9"/>
	<line x1="37.12" y1="39.31" x2="37.12" y2="29.9"/>
	<line x1="42.93" y1="39.31" x2="42.93" y2="29.9"/>
	<line x1="48.74" y1="39.31" x2="48.74" y2="0.85"/>
	<line x1="54.55" y1="39.31" x2="54.55" y2="0.85"/>
	<line x1="56.13" y1="43.04" x2="18.13" y2="43.04"/>
	<line x1="56.13" y1="48.68" x2="18.13" y2="48.68"/>
	<line x1="2.27" y1="55.84" x2="2.27" y2="0.85"/>
	<line x1="8.08" y1="55.84" x2="8.08" y2="0.85"/>
	<line x1="13.89" y1="55.84" x2="13.89" y2="0.85"/>
	<line x1="56.13" y1="54.31" x2="18.13" y2="54.31"/>
</g>
</svg>
